<svg xmlns="http://www.w3.org/2000/svg" viewBox="0 0 512 512">
  <defs>
    <filter id="shadow" x="-20%" y="-20%" width="140%" height="140%">
      <feDropShadow dx="0" dy="14" stdDeviation="18" flood-color="#bca18f" flood-opacity="0.24"/>
    </filter>
    <linearGradient id="paper" x1="0" y1="0" x2="1" y2="1">
      <stop offset="0" stop-color="#fffdf8"/>
      <stop offset="1" stop-color="#f8efe4"/>
    </linearGradient>
    <linearGradient id="heart" x1="0" y1="0" x2="0" y2="1">
      <stop offset="0" stop-color="#ffb2b8"/>
      <stop offset="1" stop-color="#ff808b"/>
    </linearGradient>
  </defs>
  <rect x="42" y="42" width="428" height="428" rx="96" fill="url(#paper)"/>
  <rect x="72" y="72" width="368" height="368" rx="78" fill="none" stroke="#ead9c7" stroke-width="9" opacity="0.82"/>
  <g opacity="0.36">
    <circle cx="116" cy="128" r="3" fill="#c9b8a8"/>
    <circle cx="182" cy="96" r="2" fill="#c9b8a8"/>
    <circle cx="378" cy="156" r="3" fill="#c9b8a8"/>
    <circle cx="326" cy="396" r="2" fill="#c9b8a8"/>
    <path d="M400 123l7 16 17 5-16 7-6 16-7-16-16-6 16-7z" fill="#f3cf8c"/>
  </g>
  <ellipse cx="263" cy="345" rx="154" ry="46" fill="#f7cbd0" opacity="0.46"/>
  <path filter="url(#shadow)" d="M263 165c35-55 113-39 128 18 16 58-35 99-128 161-92-62-144-103-128-161 16-57 94-73 128-18z" fill="url(#heart)" stroke="#df737e" stroke-width="8" stroke-linejoin="round"/>
  <circle cx="188" cy="270" r="62" fill="#d9cab7" stroke="#bca995" stroke-width="7" filter="url(#shadow)"/>
  <circle cx="171" cy="260" r="7" fill="#5f554d"/>
  <circle cx="206" cy="260" r="7" fill="#5f554d"/>
  <path d="M176 286c9 12 25 12 34 0" fill="none" stroke="#5f554d" stroke-width="7" stroke-linecap="round"/>
  <circle cx="152" cy="279" r="10" fill="#efaaa4" opacity="0.62"/>
  <circle cx="226" cy="279" r="10" fill="#efaaa4" opacity="0.62"/>
  <path d="M291 255c5-10 18-14 29-8" fill="none" stroke="#5f554d" stroke-width="9" stroke-linecap="round"/>
  <circle cx="250" cy="256" r="8" fill="#5f554d"/>
  <path d="M258 286c12 14 32 14 44 0" fill="none" stroke="#5f554d" stroke-width="8" stroke-linecap="round"/>
  <circle cx="232" cy="278" r="13" fill="#efaaa4" opacity="0.58"/>
  <circle cx="325" cy="278" r="13" fill="#efaaa4" opacity="0.58"/>
  <g filter="url(#shadow)">
    <path d="M171 309c0-19 15-34 34-34h55c13 0 25 8 31 20 6-12 18-20 31-20h24c15 0 27 12 27 27v69c0 15-12 27-27 27H205c-19 0-34-15-34-34z" fill="#f7dfbf" stroke="#bf9a6f" stroke-width="7"/>
    <path d="M291 294v89" stroke="#bf9a6f" stroke-width="7" stroke-linecap="round"/>
    <path d="M231 316h34" stroke="#e4b48b" stroke-width="7" stroke-linecap="round"/>
    <path d="M229 341h33" stroke="#e4b48b" stroke-width="7" stroke-linecap="round"/>
    <path d="M329 330c9-14 31-9 31 8 0 14-15 24-31 36-16-12-31-22-31-36 0-17 22-22 31-8z" fill="#ff9aa3" opacity="0.75"/>
  </g>
  <path d="M126 162c9-17 33-11 36 7 5 22-18 35-40 51-21-16-45-29-40-51 4-18 29-24 44-7z" fill="#ff9aa3" opacity="0.82"/>
</svg>